# xmcd
#
# Track frame offsets:
# 150
# 16880
# 32447
# 49645
# 64470
# 84400
# 104790
# 123285
# 143495
# 164877
# 186105
# 205870
# 222460
# 235992
# 256025
# 275412
# 296745
# 316890
#
# Disc length: 4503 seconds
#
# Revision: 0
# Processed by: cddbd v1.4PL0 Copyright (c) Steve Scherf et al.
# Submitted via: Audion 3.0.2 (http://www.panic.com/audion/)
#
DISCID=0b119512
DTITLE=Taylor Dayne - The Best of Taylor Dayne
DYEAR=1900
DGENRE=
TTITLE0=Tell it to My Heart
TTITLE1=Prove Your Love
TTITLE2=Don't Rush Me
TTITLE3=In the Darkness
TTITLE4=I Could Be Good for You
TTITLE5=I'll Always Love You
TTITLE6=Upon the Journey's End
TTITLE7=Dance With a Stranger
TTITLE8=I'll Be Your Shelter
TTITLE9=You Can't Fight Fate
TTITLE10=With Every Beat of My Heart
TTITLE11=Wait for Me
TTITLE12=Want Ads
TTITLE13=Can't Get Enough of Your Love
TTITLE14=Heart of Stone
TTITLE15=Memories
TTITLE16=Send Me a Lover
TTITLE17=Love Will Lead You Back
EXTD=
EXTT0=
EXTT1=
EXTT2=
EXTT3=
EXTT4=
EXTT5=
EXTT6=
EXTT7=
EXTT8=
EXTT9=
EXTT10=
EXTT11=
EXTT12=
EXTT13=
EXTT14=
EXTT15=
EXTT16=
EXTT17=
PLAYORDER=
